<svg width="33" height="33" viewBox="0 0 33 33" fill="none" xmlns="http://www.w3.org/2000/svg">
<circle cx="16.2737" cy="16.9968" r="16" fill="black"/>
<path d="M19.4063 24.0581C20.2674 24.5735 21.3936 24.6024 22.0924 23.8596C22.7911 23.1169 22.7983 21.8953 21.9849 21.2988C20.4037 20.1393 18.4866 19.4603 16.4204 19.4603C14.1782 19.4603 12.1117 20.2599 10.4594 21.6055C9.74845 22.1844 9.77183 23.285 10.4051 23.9582C11.0527 24.6465 12.0961 24.6222 12.8849 24.1277C13.8575 23.518 14.9916 23.1682 16.2024 23.1682C17.3664 23.1682 18.4595 23.4915 19.4063 24.0581Z" fill="white"/>
<path d="M16.2024 13.8985C19.8841 13.8985 23.2613 15.2843 25.8975 17.592C26.5289 18.1447 26.5247 19.1482 25.9464 19.7629C25.368 20.3777 24.4352 20.3688 23.7904 19.834C21.7571 18.1476 19.1992 17.1429 16.4204 17.1429C13.5945 17.1429 10.9969 18.182 8.94738 19.9204C8.23705 20.5229 7.19666 20.5476 6.55408 19.8646C5.92293 19.1937 5.91809 18.0978 6.61207 17.5011C9.2327 15.248 12.5693 13.8985 16.2024 13.8985Z" fill="white"/>
<path d="M2.70578 15.7739C2.06968 15.0977 2.05792 13.998 2.73283 13.3658C6.38239 9.94708 11.1736 7.87314 16.4204 7.87314C21.4963 7.87314 26.1457 9.81412 29.7476 13.0359C30.5037 13.7122 30.499 14.9235 29.8003 15.6663C29.1016 16.409 27.9739 16.4003 27.2077 15.7371C24.2059 13.1388 20.3753 11.581 16.2024 11.581C11.9781 11.581 8.10449 13.1775 5.0865 15.8337C4.38629 16.45 3.3486 16.4572 2.70578 15.7739Z" fill="white"/>
<path d="M14.0222 27.8031C14.0222 26.5232 14.9983 25.4857 16.2024 25.4857C17.4064 25.4857 18.3825 26.5232 18.3825 27.8031C18.3825 29.083 17.4064 30.1205 16.2024 30.1205C14.9983 30.1205 14.0222 29.083 14.0222 27.8031Z" fill="white"/>
</svg>
