<svg xmlns="http://www.w3.org/2000/svg" xmlns:xlink="http://www.w3.org/1999/xlink" width="260" height="73" fill="none">
	<g fill="#000">
		<path
			d="M12.823 34.65c-1.568 0-3.08-.154-4.536-.462-1.428-.308-2.702-.798-3.822-1.47a8.22 8.22 0 0 1-2.688-2.688C1.132 28.938.81 27.594.81 25.998v-.42c.028-.14.042-.28.042-.42h4.032a3.41 3.41 0 0 1-.042.42v.462c0 1.12.336 2.072 1.008 2.856s1.596 1.372 2.772 1.764c1.204.364 2.562.546 4.074.546.672 0 1.372-.042 2.1-.126.756-.084 1.47-.224 2.142-.42a8.03 8.03 0 0 0 1.848-.84c.56-.364.994-.798 1.302-1.302.336-.532.504-1.176.504-1.932 0-.952-.28-1.736-.84-2.352-.532-.644-1.246-1.162-2.142-1.554-.896-.42-1.918-.784-3.066-1.092l-3.486-.966-3.528-1.05c-1.12-.42-2.128-.924-3.024-1.512-.896-.616-1.624-1.372-2.184-2.268-.532-.896-.798-1.988-.798-3.276 0-1.204.238-2.282.714-3.234.504-.952 1.232-1.75 2.184-2.394.98-.672 2.184-1.176 3.612-1.512 1.428-.364 3.066-.546 4.914-.546 1.512 0 2.912.168 4.2.504 1.316.308 2.464.798 3.444 1.47 1.008.644 1.792 1.47 2.352 2.478s.84 2.226.84 3.654v.504h-3.948v-.63c0-.952-.294-1.764-.882-2.436s-1.4-1.19-2.436-1.554c-1.008-.364-2.156-.546-3.444-.546-1.68 0-3.08.168-4.2.504-1.12.308-1.96.77-2.52 1.386-.532.588-.798 1.26-.798 2.016 0 .868.266 1.596.798 2.184.56.588 1.288 1.078 2.184 1.47.896.364 1.918.7 3.066 1.008l3.486.966c1.204.308 2.366.672 3.486 1.092 1.148.392 2.17.896 3.066 1.512.924.588 1.652 1.344 2.184 2.268.532.896.798 2.002.798 3.318 0 2.044-.504 3.71-1.512 4.998-1.008 1.26-2.394 2.184-4.158 2.772s-3.808.882-6.132.882z" />
		<use xlink:href="#N" />
		<path
			d="M99.939 34.65c-2.94 0-5.432-.532-7.476-1.596-2.044-1.092-3.612-2.73-4.704-4.914-1.064-2.212-1.596-5.012-1.596-8.4 0-5.012 1.218-8.75 3.654-11.214S95.641 4.83 99.981 4.83c2.464 0 4.648.406 6.552 1.218 1.904.784 3.388 1.988 4.452 3.612 1.092 1.596 1.638 3.612 1.638 6.048h-4.032c0-1.68-.364-3.066-1.092-4.158-.7-1.092-1.694-1.904-2.982-2.436-1.288-.56-2.8-.84-4.536-.84-2.016 0-3.752.392-5.208 1.176s-2.562 2.002-3.318 3.654c-.756 1.624-1.134 3.724-1.134 6.3v.882c0 2.548.378 4.634 1.134 6.258.756 1.596 1.848 2.772 3.276 3.528 1.456.756 3.206 1.134 5.25 1.134 1.792 0 3.332-.266 4.62-.798 1.316-.532 2.324-1.344 3.024-2.436.728-1.12 1.092-2.52 1.092-4.2h3.906c0 2.492-.56 4.536-1.68 6.132-1.092 1.596-2.59 2.786-4.494 3.57s-4.074 1.176-6.51 1.176zm18.251-.504V5.334h3.99v28.812h-3.99z" />
		<use xlink:href="#N" x="72.68" />
		<path
			d="M173.291 34.65c-4.648 0-8.19-1.218-10.626-3.654-2.408-2.436-3.612-6.188-3.612-11.256 0-3.304.56-6.062 1.68-8.274a10.89 10.89 0 0 1 4.956-4.956c2.184-1.12 4.844-1.68 7.98-1.68 1.96 0 3.738.21 5.334.63s2.968 1.064 4.116 1.932a8.23 8.23 0 0 1 2.688 3.192c.644 1.288.966 2.814.966 4.578h-4.074c0-1.232-.224-2.282-.672-3.15-.448-.896-1.092-1.624-1.932-2.184-.812-.56-1.764-.952-2.856-1.176a15.47 15.47 0 0 0-3.486-.378c-1.68 0-3.178.21-4.494.63s-2.422 1.078-3.318 1.974-1.582 2.044-2.058 3.444-.714 3.066-.714 4.998v.882c0 2.604.392 4.718 1.176 6.342.812 1.624 1.974 2.814 3.486 3.57 1.512.728 3.332 1.092 5.46 1.092 2.156 0 3.934-.294 5.334-.882 1.4-.616 2.436-1.54 3.108-2.772.7-1.232 1.05-2.786 1.05-4.662v-.504h-10.164v-3.402h14.196v15.162h-3.024l-.42-3.654c-.756.98-1.652 1.778-2.688 2.394a11.62 11.62 0 0 1-3.444 1.344c-1.232.28-2.548.42-3.948.42zM25.748 8.508c-.636-.676-.648-1.776.027-2.408C29.425 2.681 34.216.607 39.463.607c5.076 0 9.725 1.941 13.327 5.163.756.676.751 1.888.053 2.63s-1.826.734-2.593.071c-3.002-2.598-6.832-4.156-11.005-4.156-4.224 0-8.098 1.596-11.116 4.253-.7.616-1.738.624-2.381-.06zm13.497-1.875c3.682 0 7.059 1.386 9.695 3.694.631.553.627 1.556.049 2.171s-1.511.606-2.156.071c-2.033-1.686-4.591-2.691-7.37-2.691-2.826 0-5.424 1.039-7.473 2.778-.71.602-1.751.627-2.393-.056-.631-.671-.636-1.767.058-2.363 2.621-2.253 5.957-3.603 9.59-3.603zm3.204 10.159c.861.515 1.987.544 2.686-.198s.706-1.964-.107-2.561c-1.581-1.159-3.498-1.838-5.565-1.838-2.242 0-4.309.8-5.961 2.145-.711.579-.688 1.68-.054 2.353.648.688 1.691.664 2.48.17a6.22 6.22 0 0 1 3.317-.959 6.21 6.21 0 0 1 3.204.89zm-5.384 3.745c0-1.28.976-2.317 2.18-2.317s2.18 1.038 2.18 2.317v13.621h-4.36V20.537zM78.869 71.65V42.838h21.252v5.124H85.127v7.14h13.398v5.082H85.127V71.65h-6.258z" />
		<use xlink:href="#E" />
		<use xlink:href="#E" x="28.67" />
		<path
			d="M162.336 71.65V42.838h6.258v23.478h14.532v5.334h-20.79zm24.815 0V42.838h6.258V71.65h-6.258zm12.632 0V42.838h5.754l11.592 15.54c.168.196.378.476.63.84l.714 1.008c.224.336.378.602.462.798h.21v-1.386-1.26-15.54h5.922V71.65h-5.754l-11.844-15.918-.882-1.302-.672-1.092h-.21v1.26 1.134V71.65h-5.922zm44.768.504c-4.536 0-8.036-1.204-10.5-3.612-2.436-2.436-3.654-6.202-3.654-11.298 0-3.388.588-6.174 1.764-8.358 1.176-2.212 2.884-3.85 5.124-4.914 2.24-1.092 4.928-1.638 8.064-1.638 1.876 0 3.64.21 5.292.63s3.108 1.064 4.368 1.932c1.288.868 2.282 1.96 2.982 3.276.728 1.288 1.092 2.828 1.092 4.62h-6.342c0-.868-.196-1.638-.588-2.31-.364-.672-.882-1.232-1.554-1.68s-1.442-.784-2.31-1.008-1.778-.336-2.73-.336c-1.456 0-2.73.196-3.822.588-1.092.364-2.002.938-2.73 1.722-.7.756-1.232 1.708-1.596 2.856s-.546 2.478-.546 3.99v1.26c0 2.1.308 3.822.924 5.166s1.54 2.352 2.772 3.024c1.232.644 2.758.966 4.578.966 1.512 0 2.842-.224 3.99-.672 1.176-.476 2.086-1.148 2.73-2.016.672-.868 1.008-1.932 1.008-3.192v-.294h-8.61v-4.788h14.826V71.65h-4.116l-.546-3.108c-.84.812-1.75 1.484-2.73 2.016-.952.532-2.016.924-3.192 1.176-1.176.28-2.492.42-3.948.42z" />
	</g>
	<defs>
		<path id="N"
			d="M56.707 34.146V5.334h3.864l13.986 18.984a9.37 9.37 0 0 1 .546.756l.672 1.008a8.35 8.35 0 0 1 .546.84h.168V25.62v-1.302V5.334h3.906v28.812h-3.654l-14.154-19.32-.882-1.302-.924-1.344h-.21v1.344 1.302 19.32h-3.864z" />
		<path id="E"
			d="M104.996 71.65V42.838h23.016v5.124h-16.716v6.426h14.784v5.082h-14.784v7.014h16.968v5.166h-23.268z" />
	</defs>
</svg>